<?xml version="1.0" encoding="utf-8"?>
<!-- Generator: Adobe Illustrator 15.1.0, SVG Export Plug-In . SVG Version: 6.00 Build 0)  -->
<!DOCTYPE svg PUBLIC "-//W3C//DTD SVG 1.1//EN" "http://www.w3.org/Graphics/SVG/1.1/DTD/svg11.dtd">
<svg version="1.1" id="Слой_1" xmlns="http://www.w3.org/2000/svg" xmlns:xlink="http://www.w3.org/1999/xlink" x="0px" y="0px"
	 width="301px" height="615px" viewBox="0 0 301 615" enable-background="new 0 0 301 615" xml:space="preserve">
<g>
	<path fill="#1992F8" d="M34.027,364.939l7.445,2.658c0,0,5.85-4.52,5.85-5.318c0-0.678,24.178,122.183,24.178,122.183
		l13.315,122.187L55.75,488.5L34.027,364.939z"/>
	<g>
		<path fill="#1992F8" d="M94.023,100.958c-2.642,0.406-4.704,2.377-7.016,3.52c-0.326,0.161-0.147,0.745,0.214,0.689
			c1.271-0.194,2.265-1.025,3.376-1.61c1.248-0.657,2.688-0.969,3.845-1.777C94.864,101.484,94.445,100.892,94.023,100.958z"/>
		<path fill="#1992F8" d="M228.567,34.361c-2.399,1.99-5.024,2.687-6.493,5.782c-1.773,3.737-2.531,8.199-1.265,11.96
			c1.803,5.359,0.462,6.872-1.178,10.698c-1.641,3.828-4.13,7.046-5.917,10.836c-3.931,8.343-6.788,15.107-10.239,23.652
			c-3.296,8.158-5.92,18.522-8.107,26.999c-0.189,0.005-1.274,0.406-1.381,0.518c-3.918,1.674-7.837,3.063-11.484,5.369
			c-3.9,2.467-8.082,6.165-12.729,7.812c-6.44,2.282-12.375,4.144-14.61,5.451c-1.286,0.752-4.205,2.448-5.57,3.09
			c-0.589,0.276-1.993,0.768-2.097,0.772c-2.314,0.11-4.132,0.731-6.394,1.125c-4.567,0.796,1.261,1.96,1.333,1.978
			c5.667,1.342,12.604-0.155,17.547-1.783c5.247-1.729,10.388-4.043,15.384-6.389c9.396-4.409,19.703-11.006,25.005-14.779
			c2.302-1.638,3.927-12.541,5.233-17.519c1.567-5.971,3.113-11.358,5.119-17.194c2.047-5.955,4.402-11.426,6.632-17.271
			c2.343-6.142,3.806-8.74,4.868-11.981c0.684-1.921,2.7-6.646,2.963-11.097c0.042-0.707-0.699-5.376-1.035-7.205
			c0.159-1.288,1.394-4.188,2.393-5.385c1.227-1.47,2.897-1.938,3.496-3.817C230.666,34.017,229.002,34,228.567,34.361z"/>
		<path fill="#1992F8" d="M239.308,17.752c0-2.304-2.803-5.5-4.477-8.332c-0.926-1.568-1.404-2.831-1.47-2.931
			c-0.091-0.083-0.185-0.16-0.283-0.232c-0.068,0.048-0.137,0.096-0.2,0.149c-0.298,0.765-1.299,2.983-1.532,3.319
			c-0.095,0.371-4.042,5.645-4.047,8.32c-0.005,2.543,3.889,13.346,3.894,14.115c0.009,1.379,0.07,3.342,0.005,4.693
			c0.115,0.094,1.121-0.517,1.266-0.479c2.013-1.294,4.383-4.531,4.749-4.981c0.057-0.07,0.129-0.222,0.129-0.222
			C237.437,29.59,239.308,21.165,239.308,17.752z"/>
		<path fill="#1992F8" d="M245.275,42.078c-0.354-1.663-0.883-3.153-1.059-4.863c-0.106-1.039-0.545-1.908-1.149-2.737
			c-0.954-1.309-2.691-2.606-4.186-1.66c-3.119,4.046-6.155,5.914-7.078,6.885c-2.036,2.144-4.239,5.134-4.24,8.104
			c-0.005,9.08,7.594,13.44,12.05,13.678c0.093,0.005,0.178-0.007,0.258-0.026c0.19,0.044,0.389,0.048,0.57-0.008
			c0.839-0.257,1.402-0.82,1.805-1.518c1.762-2.128,2.932-4.297,3.392-7.076C246.167,49.653,245.952,45.254,245.275,42.078z"/>
		<path fill="#1992F8" d="M172.985,305.534c-1.543-9.954-2.319-16.678-6.736-25.752c-1.503-3.088-7.512-7.91-8.753-16.153
			c0,0-1.257-9.258-1.861-16.575c-0.37-4.48,0.943-9.524-0.473-8.598c-3.073,1.241-1.228,26.521-0.939,30.237
			c0.284,3.645,5.448,11.668,7.173,14.878c9.573,17.816,1.206,82.191-1.994,98.785c-1.032,5.352-4.626,22.723-5.152,27.145
			c-1.018,8.555-2.758,18.893-3.258,27.492c-0.635,10.93-0.68,23.275-0.364,30.32c0.148,3.309,1.496,15.088,2.26,14.492
			c0.764-0.594,0.416-4.361,0.446-5.199c1.149-31.363,5.981-52.021,11.254-71.914c2.122-8.006,4.764-18.246,6.103-26.418
			c0.573-3.496,2.268-18.75,2.437-22.9c0.35-8.525,0.674-17.051,0.714-25.584C173.88,321.635,174.243,313.647,172.985,305.534z"/>
		<path fill="#1992F8" d="M170.833,197.59c-1.184-3.117-8.656-11.756-12.362-14.886c0.006-0.664-23.267,4.343-47.582-0.492
			c-3.539-0.703-17.632-3.274-38.908-17.254c-1.838-1.208-1.173,0.787,0.271,2.299c2.524,2.64,9.075,7.709,11.166,9.021
			c6.514,4.088,17.652,9.454,25.062,11.301c7.523,1.875,17.565,2.713,25.314,2.643c7.816-0.071,24.015-4.145,24.263-4.766
			c5.11,6.644,7.975,7.886,10.108,13.211c3.964,9.895-1.664,15.735-8,20.307c-3.737,2.696-4.934,7.345-6.022,11.308
			c0.068-0.047-0.061,0.13,0.187,0.291c0.831,0.481,3.16-7.433,16.239-14.815C174.758,213.394,173.295,204.071,170.833,197.59z"/>
		<path fill="#1992F8" d="M80.496,231.196c0-2.716-6.32-12.222-7.305-12.222c-0.731,0,1.206,2.316,1.994,7.047
			c0.997,5.982-1.169,23.766-1.803,28.212c-1.041,7.299-2.634,11.294-4.022,18.509c-1.433,7.449-6.361,19.447-8.564,26.695
			c-1.374,4.521-2.659,7.292-4.343,12.055c-1.33,3.9-3.08,10.612-2.526,10.102c0.378-0.35,2.526-6.822,4.034-10.156
			c11.026-25.907,11.325-16.951,16.13-38.591c1.831-8.246,3.274-12.674,4.791-20.96C79.53,248.343,80.496,231.196,80.496,231.196z"
			/>
		<path fill="#1992F8" d="M154.068,93.99c-0.135-1.062-0.478-2.202-1.334-2.791c0.285-3.272,1.027-6.465,1.261-9.745
			c0.688-2.771,1.271-5.578,1.153-6.753c-0.266-2.659-3.59-7.445-3.59-7.445s-2.127-2.792-5.584-5.983
			c-3.457-3.19-9.44-5.85-9.44-5.85s-5.296-1.521-7.578-2.127c-1.671-0.443-4.405-0.637-6.382-0.931s-6.532-0.061-9.174,0.931
			c-2.643,0.991-7.978,3.59-7.978,3.59c-4.254,1.462-11.168,0-14.625,0.798c-3.457,0.797-8.455,3.767-10.104,5.717
			c-1.65,1.949-6.249,7.046-7.18,10.503s-1.195,11.008,0,13.96c1.195,2.953,5.02,9.231,7.578,10.637
			c1.414,0.776,2.643,1.5,3.798,2.065c-0.953,3.512,0.14,6.331,2.03,9.021c-2.188,0.624-3.724,3.326-4.44,5.248
			c-3.182,8.528-4.506,16.826-4.977,24.217c-0.266,4.163-0.683,13.8-0.739,16.118c-0.002,0.096,0.009,0.186,0.026,0.271
			c-4.869,0.999-9.867,1.284-14.537,3.166c-10.416,4.195-14.447,16.436-15.493,26.658c-0.614,5.993-0.143,11.898,0.493,17.866
			c0.802,7.53,1.444,15.055,1.955,22.61c0.433,6.405,0.898,12.813,1.384,19.219c0.254,5.439-1.045,7.563-2.143,10.116
			c-1.062,2.469-2.048,4.908-2.831,7.485c-1.769,5.819-2.771,11.963-3.741,17.958c-0.939,5.806-1.335,11.639-1.873,17.488
			c-0.312,3.396-0.314,5.308-0.834,8.687c-0.709,4.608-3.039,9.615-3.37,10.382c-0.361-1.383-0.942-5.983-0.942-5.983
			s1.206-8.985,0.541-11.644c-0.662-2.647-8.819-10.938-9.855-11.797c-0.559-0.464-1.245-0.104-1.435,0.517
			c-0.359,1.171-2.122,12.771-1.415,14.922c1.522,4.631,4.64,6.67,6.49,9.383c0.439,1.286,0.556,3.061,0.855,4.383
			c0.631,2.787,0.682,2.657,0.806,4.765c-2.156,2.84-3.792,4.188-6.502,6.698c-3.29,3.047-7.176,4.461-6.917,9.018
			c0.151,2.668,3.31,8.979,6.105,9.866c0.982,0.313,1.08-0.246,1.696,1.129c0.333,0.744,0.611,1.605,1.222,2.18
			c0.95,0.893,2.287,1.502,3.639,1.838c-1.319,0.928-7.11,2.471-9.286,3.446c-1.811,0.813-12.392,5.931-13.078,6.536
			c-2.064,1.82-2.467,4.273-1.593,6.805c0.079,0.229,0.492,0.688,1.45,0.158c0.167-0.093,3.951-2.17,3.82-2.119
			c2.353-0.893,4.338-2.313,6.715-3.205c5.642-2.115,13.325-4.495,18.768-1.859c4.852,2.35,4.467,0.589,6.353-0.951
			c2.664-2.176,5.674-3.617,9.28-4.16c3.131-0.473,5.896-0.367,9.027-0.211c0.835,0.043,2.072,0.262,2.893,0.41
			c0.236,0.042,1.503,0.031,2.332,0.795c-0.099,1.396-0.188,2.795-0.258,4.191c-0.414,8.371,0.118,16.799,0.529,25.16
			c0.385,7.834,1.21,15.578,2.764,23.271c1.737,8.605,27.662,104.066,31.286,113.77c9.122,24.428,8.855,40.381,9.797,41.637
			c1.544,2.059,3.18-10.961-2.936-33.637c-2.18-8.084-6.056-24.594-11.168-44.332c-2.104-8.125-17.55-71.795-17.816-111.283
			c-0.117-17.32,1.082-34.422,5.304-51.152c2.232-8.85,3.717-17.876,7.327-26.227c2.593-5.998,7.589-11.471,11.301-20.076
			c3.9-9.041,1.994-28.918-6.005-39.448c-3.122-4.11-4.98-6.474-7.024-7.972c-1.146-0.541,0.225,1.447,0.598,2.082
			c7.179,12.232,7.911,20.874,8.242,29.223c0.146,3.696-1.808,9.729-4.001,13.738c-1.174,2.146-3.788,5.156-5.371,6.989
			c-1.568,1.817-2.981,3.763-4.314,5.756c-5.146,7.696-8.305,14.921-11.242,24.199c-2.195,7.67-3.375,15.393-4.502,22.584
			c-0.729,4.654-1.358,9.336-1.851,14.029c-0.032-0.008-0.064-0.014-0.097-0.02c-3.104-0.631-6.026-1.271-9.219-1.406
			c-3.37-0.141-6.769,0.559-10.075-0.328c-0.127-0.035-0.244-0.09-0.361-0.143c-0.463-1.471-1.369-2.746-2.665-3.955
			c-1.398-1.301-2.427-2.336-3.061-4.176c-0.369-1.068-0.867-1.932-1.85-2.516c-1.543-0.916-1.622-1.256-3.073-0.4
			c-1.495,0.883-2.15,4.229-2.027,5.088c0.305,2.129,0.86,5.127,0.355,7.139c-0.758,1.002-2.393,1.773-2.925,1.33
			c0.02,0.004-4.13-0.591-4.432-8.775c-0.096-2.594,2.739-7.325,4.078-9.395c1.265-1.957,3.892-4.014,5.513-5.685
			c2.766-2.852,5.07-5.637,6.515-9.371c1.531-3.957,2.544-8.273,3.317-12.436c1.628-8.769,3.521-17.505,5.537-26.196
			c0.952-4.105,2.68-7.933,3.957-11.922c0.644-1.643,0.976-5.498,0.754-9.546c0.021-2.831,0.025-5.661,0.038-8.491
			c0.031-6.582-0.014-13.149-0.313-19.727c-0.3-6.589-0.701-13.188-1.248-19.761c-0.517-6.209-1.502-12.364-1.807-18.594
			c-0.294-6.01,0.293-12.148,2.049-17.92c1.921-6.315,6.952-9.581,13.036-11.201c10.441-2.781,26.524-9.215,29.749-15.363
			c0.468-0.893,0.366-2.228-0.35-1.614c-2.274,1.949-3.4,2.635-5.958,4.001c-1.737-4.813-2.145-10.113-2.03-15.913
			c0.062-3.1,0.094-9.442,1.704-18.065c2.666,1.684,5.789,2.637,8.939,2.408c0.256,0.699,0.671,1.384,0.767,2.104
			c0.72,5.375,1.776,13.797,1.733,18.058c-0.044,4.344-0.89,8.563-2.728,12.501c-1.69,3.621-4.197,6.507-6.593,9.654
			c-0.491,0.645-0.829,1.882-0.171,1.458c6.196-3.988,10.904-12.968,11.588-20.023c0.449-4.622,0.012-13.636-1.83-22.87
			c-0.091-0.46-0.892-1.696-0.896-1.997c-0.01-0.844-0.821-1.267-1.444-1.136c-0.22-0.146-0.491-0.231-0.813-0.207
			c-2.577,0.192-5.22-0.724-7.472-2.151c0.046-0.054,0.084-0.119,0.103-0.205c0.447-2.133,3.472-3.104,5.176-3.986
			c2.25-1.165,4.405-1.853,6.819-2.557c1.922-0.561,3.671-1.726,5.503-2.515c2.64-1.138,5.61-1.808,8.374-2.581
			c4.851-1.357,9.775-2.379,14.784-2.928c2.953-0.323,13.368-1.384,16.083,1.892c-0.009,0.521-0.017,1.042-0.027,1.565
			c-0.125,7.135-1.979,14.049-4.196,20.877c-1.992,6.136-4.94,10.972-11.502,11.829c-7.022,0.917-12.529-3.505-18.722-5.77
			c-0.762-0.278,0.007,0.902,0.642,1.386c4.491,3.421,10.191,6.867,16.444,6.986c6.424,0.123,13.071-5.059,14.933-11.573
			c1.907-6.673,4.13-11.049,4.56-17.878c0.088-1.392,0.12-2.785,0.127-4.179c0.171-0.119,0.298-0.295,0.346-0.523
			c0.088-0.087,0.164-0.186,0.211-0.295c0.22-0.506,0.43-0.896,0.595-1.298l0.009,0.004c0.39-1.101,0.758-2.432,0.627-3.663
			C154.522,96.335,154.187,94.924,154.068,93.99z M152.534,82.284c-0.763,2.416-1.228,4.847-1.523,7.297
			c-1.098-0.843-2.453-1.416-3.679-1.872c-6.844-2.545-15.711-1.681-22.542,0.066c-7.343,1.877-11.403,4.965-20.024,7.419
			c-2.441,0.695-4.826,1.316-7.117,2.32c0.269-0.979,0.871-2.532,2.19-3.934c2.127-2.261,5.983-1.861,9.573-3.059
			c3.59-1.196,5.185-6.647,8.11-9.307c2.925-2.659,14.891-6.382,16.087-7.445c1.196-1.063,1.196-1.063,1.994-2.925
			s0.672-4.151,0-7.313s-1.33-6.249-1.33-6.249s2.441,3.449,2.792,5.983c0.351,2.533,0.532,4.786,1.33,6.647
			s5.717,3.324,5.717,3.324s4.653,1.063,6.382,3.058c1.728,1.994,2.127,4.777,2.127,4.777L152.534,82.284z"/>
		<path fill="#1992F8" d="M270.18,129.922c-0.735,0.135-4.882,2.6-5.701,3.085c-2.858,0.113-26.122,2.023-26.988,1.957V63.7
			c0,0-1.8-0.679-3.623-1.674c-1.337-0.729-3.416-2.049-3.416-2.049v76.56c-1.343,1.196-20.434,11.397-21.493,11.905
			c-1.558,0.746-6.654,3.127-6.879,3.173c-2.88-0.009-4.742-0.434-7.591-0.784c-0.918-0.113-5.066,3.393-5.12,3.427
			c-0.917,0.564-0.767,1.097-0.218,1.479c0.727,0.507,4.876,2.979,5.479,3.293c0.471,0.247,0.804,0.117,1.211-0.229
			c1.786-1.519,5.625-3.812,7.06-4.681c0.978-0.592,24.678-4.021,27.551-3.298l0.247,6.875c-0.165,0.486-0.834,1.883-1.357,3.149
			c-0.897,2.169-3.308,6.562-3.19,7.806c0.061,0.646,3.08,4.233,4.528,6.543c1.116,1.78,2.614,3.399,3.649,5.261
			c0.412,0.741,1.221,0.541,1.626,0.009c0.161-0.059,6.643-10.195,6.677-12.529c0.013-0.851-4.027-7.944-5.141-10.404v-8.616
			c1.305-0.84,26.913-13.619,27.232-13.631c0.846-0.032,4.589,0.455,6.031,0.467c0.572-0.068,4.172-3.437,4.172-3.911
			C274.673,131.561,270.729,129.988,270.18,129.922z"/>
		<path fill="#1992F8" d="M295.326,245.014c-0.194-1.004-1.053-1.675-1.725-2.383c-1.522-6.965-23.241-106.375-23.112-106.888
			l-21.827,106.396c0,0-0.837,0.338-2.064,1.169c-0.565,0.477-1.266,1.344-1.572,2.172c-2.194,5.916,13.167,10.808,25.521,11.168
			C281.919,256.98,296.457,250.884,295.326,245.014z M290.119,248.128c-2.184,1.764-6.173,3.644-8.863,4.243
			c-3.905,0.869-8.252,1.378-12.232,1.352c-7.604-0.051-17.866-4.255-19.661-5.717c-0.415-0.433,0.474-0.118,0.781,0
			c1.13,0.432,7.967,2.503,12.099,3.257c7.047,1.264,13.337,0.515,17.483-0.133c6.958-1.086,11.775-4.487,11.789-4.498
			C292.134,246.543,291.093,247.341,290.119,248.128z M287.294,239.645c-5.332-1.21-10.924-0.72-16.37-0.697
			c-5.544,0.022-11.206,0.14-16.661,1.212c-1.317,0.258-2.559,0.648-3.659,1.202l20.612-82.515l20.94,82.711
			C290.754,240.67,288.495,239.917,287.294,239.645z"/>
		<path fill="#1992F8" d="M220.637,273.346c-0.196-1.053-1.066-1.755-1.747-2.496c-1.542-7.299-23.548-111.465-23.418-112.003
			l-22.115,111.485c0,0-0.849,0.355-2.092,1.227c-0.573,0.498-1.283,1.408-1.593,2.275c-2.223,6.199,13.342,11.324,25.859,11.702
			C207.054,285.885,221.784,279.497,220.637,273.346z M215.362,276.61c-2.212,1.848-6.254,3.817-8.98,4.446
			c-3.957,0.91-8.361,1.443-12.395,1.416c-7.705-0.054-18.102-4.459-19.921-5.991c-0.421-0.453,0.48-0.123,0.792,0
			c1.145,0.453,8.072,2.623,12.258,3.413c7.14,1.323,13.514,0.539,17.715-0.139c7.05-1.138,11.931-4.702,11.944-4.714
			C217.404,274.949,216.349,275.785,215.362,276.61z M212.5,267.72c-5.402-1.268-11.068-0.754-16.586-0.73
			c-5.617,0.023-11.354,0.146-16.882,1.269c-1.334,0.271-2.592,0.681-3.708,1.261l20.615-81.148l21.488,81.354
			C216.006,268.794,213.716,268.005,212.5,267.72z"/>
		<path fill="#1992F8" d="M126.031,233.581c-3.019-1.227-17.658,5.239-44.938-15.821c-17.062-13.172-17.203-37.232-17.284-40.967
			c-0.015-0.688-0.798-4.371-1.324-1.639c-0.653,3.393,1.389,33.457,17.603,47.045c22.942,19.227,41.513,13.788,44.794,13.387
			C126.34,235.407,127.406,234.139,126.031,233.581z"/>
		<path fill="#1992F8" d="M119.915,199.012c-10.736-0.086-24.603-4.396-33.585-9.979c-13.61-8.46-19.906-19.074-20.659-20.733
			c-0.275-0.605-0.156,1.141,0.02,1.819c0.437,1.698,8.488,14.789,19.258,21.58c9.359,5.902,19.645,8.674,30.882,8.674
			C120.13,200.374,121.108,199.022,119.915,199.012z"/>
	</g>
</g>
</svg>
